{"accessors":[{"bufferView":3,"componentType":5126,"count":4216,"max":[173.76156616210938,96.74063873291016,753.988525390625],"min":[-173.76158142089844,-83.55760192871094,12.667522430419922],"type":"VEC3"},{"bufferView":3,"byteOffset":50592,"componentType":5126,"count":4216,"max":[0.9999980926513672,0.999993085861206,0.99998939037323],"min":[-1,-0.9999996423721313,-0.9999589920043945],"type":"VEC3"},{"bufferView":2,"componentType":5126,"count":4216,"max":[0.8750001192092896,1.0000001192092896],"min":[0,0],"type":"VEC2"},{"bufferView":1,"componentType":5125,"count":22560,"type":"SCALAR"},{"bufferView":3,"byteOffset":101184,"componentType":5126,"count":304,"max":[75.77668762207031,-76.0455551147461,640.6049194335938],"min":[-75.77668762207031,-90.15205383300781,612.6918334960938],"type":"VEC3"},{"bufferView":3,"byteOffset":104832,"componentType":5126,"count":304,"max":[0.9831148982048035,0.9891716837882996,0.9991987347602844],"min":[-0.9831147789955139,-0.9950456619262695,-0.9963075518608093],"type":"VEC3"},{"bufferView":2,"byteOffset":33728,"componentType":5126,"count":304,"max":[1.000000238418579,1.0000001192092896],"min":[0,0],"type":"VEC2"},{"bufferView":1,"byteOffset":90240,"componentType":5125,"count":1632,"type":"SCALAR"},{"bufferView":5,"componentType":5126,"count":34,"max":[1,0.9412119388580322,0.9995319843292236,0,0.9997352957725525,1,0.9627543687820435,0,0.30584681034088135,1,1,0,148.84970092773438,340.50518798828125,414.7901611328125,1],"min":[-0.9982402920722961,-0.9412182569503784,-0.9998849034309387,0,-0.9997876286506653,-0.9536995887756348,-1,0,-0.30592408776283264,-0.9998593330383301,-0.9410059452056885,0,-153.1624298095703,-517.0623779296875,-58.25967788696289,1],"type":"MAT4"},{"bufferView":0,"componentType":5123,"count":4216,"type":"VEC4"},{"bufferView":4,"componentType":5126,"count":4216,"max":[1,0.49803924560546875,0.3137255012989044,0.1921568512916565],"min":[0.30980390310287476,0,0,0],"type":"VEC4"},{"bufferView":0,"byteOffset":33728,"componentType":5123,"count":304,"type":"VEC4"},{"bufferView":4,"byteOffset":67456,"componentType":5126,"count":304,"max":[1,0,0,0],"min":[1,0,0,0],"type":"VEC4"}],"asset":{"extras":{"author":"lastiberianlynx (https://sketchfab.com/lastiberianlynx)","license":"SKETCHFAB Standard (https://sketchfab.com/licenses)","source":"https://sketchfab.com/3d-models/red-alien-5bd11403107b45ab9b1514e820576eca","title":"Red alien"},"generator":"Sketchfab-15.55.0","version":"2.0"},"bufferViews":[{"buffer":0,"byteLength":36160,"byteStride":8,"name":"shortBufferViews","target":34962},{"buffer":0,"byteLength":96768,"byteOffset":36160,"name":"floatBufferViews","target":34963},{"buffer":0,"byteLength":36160,"byteOffset":132928,"byteStride":8,"name":"floatBufferViews","target":34962},{"buffer":0,"byteLength":108480,"byteOffset":169088,"byteStride":12,"name":"floatBufferViews","target":34962},{"buffer":0,"byteLength":72320,"byteOffset":277568,"byteStride":16,"name":"floatBufferViews","target":34962},{"buffer":0,"byteLength":2176,"byteOffset":349888,"name":"floatBufferViews"}],"buffers":[{"byteLength":352064,"uri":"data:application/octet-stream;base64,"}],"materials":[{"doubleSided":true,"name":"Material","pbrMetallicRoughness":{"baseColorFactor":[0.8,0.00848778,0,1],"metallicFactor":0,"roughnessFactor":0.9577051494623774}},{"doubleSided":true,"name":"Material_001","pbrMetallicRoughness":{"baseColorFactor":[0.8,0.8,0.8,1],"metallicFactor":0,"roughnessFactor":0.9577051494623774}}],"meshes":[{"name":"redfriend_Material_0","primitives":[{"attributes":{"JOINTS_0":9,"NORMAL":1,"POSITION":0,"TEXCOORD_0":2,"WEIGHTS_0":10},"indices":3,"material":0,"mode":4}]},{"name":"redfriend_Material_001_0","primitives":[{"attributes":{"JOINTS_0":11,"NORMAL":5,"POSITION":4,"TEXCOORD_0":6,"WEIGHTS_0":12},"indices":7,"material":1,"mode":4}]}],"nodes":[{"children":[1],"matrix":[1,-2.2204460492503136e-16,2.8327693431939985e-16,0,2.220446049250313e-16,1,0,0,-2.832769343193999e-16,0,1,0,0,0,0,1],"name":"Sketchfab_model"},{"children":[2],"matrix":[0.009999999776482582,0,0,0,0,-0.009999999776482582,0,0,0,0,-0.009999999776482582,0,0,0,0,1],"name":"904e602e9660401ea5131350ac81c87d.fbx"},{"children":[3],"name":"RootNode"},{"children":[4],"name":"redfriend"},{"children":[5,7,8,6],"name":"Object_4"},{"children":[9],"name":"_rootJoint"},{"matrix":[1,9.860761315262648e-32,-2.350988701644575e-38,0,-9.860761315262648e-32,1,-5.293955920339377e-23,0,2.3509887016445745e-38,5.293955920339377e-23,1,0,0,-8.881784197001252e-16,-2.842170943040401e-14,1],"name":"Object_6"},{"mesh":0,"name":"Object_7","skin":0},{"mesh":1,"name":"Object_8","skin":0},{"children":[10,32,37],"name":"Hips_01","rotation":[0.7071067094802856,1.9626150434576164e-16,1.9626155728532085e-16,0.70710688829422],"scale":[1,0.9999999403953552,0.9999999403953552],"translation":[-0.00000762939453125,4.6112847328186035,231.28369140625]},{"children":[11],"name":"Spine_02","rotation":[0.010138927958905697,-4.9301273385987216e-32,4.9988774297706085e-34,0.9999486207962036],"translation":[0,41.911956787109375,0.8500151634216309]},{"children":[12],"name":"Spine1_03","rotation":[2.4665580689031685e-9,4.930380657631324e-32,-1.2161028592796492e-40,1],"translation":[-8.470329472543003e-22,48.90729904174805,-3.249339641797633e-8]},{"children":[13,16,24],"name":"Spine2_04","rotation":[1.734723475976807e-18,4.933969441884384e-32,2.2881706967963647e-34,1],"translation":[-1.6940658945086007e-21,55.89408874511719,4.785244200888883e-9]},{"children":[14],"name":"Neck_05","rotation":[-0.010138929821550846,4.933715535104607e-32,9.578491840446409e-34,0.9999486207962036],"translation":[0,62.88081741333008,-2.668436422936793e-7]},{"children":[15],"name":"Head_06","rotation":[2.6469779601696886e-23,-5.307473985568818e-40,-4.820186457584506e-40,1],"translation":[0,76.218994140625,-0.3109489679336548]},{"name":"HeadTop_End_07","rotation":[2.6469779601696886e-23,4.930380657631324e-32,9.334378376006723e-39,1],"translation":[0,236.88671875,-0.9664217233657837]},{"children":[17],"name":"LeftShoulder_08","rotation":[0.581407904624939,0.4047307074069977,-0.5751497149467468,0.40909767150878906],"scale":[1,0.9999999403953552,1],"translation":[36.01399230957031,49.92032241821289,0.3910183310508728]},{"children":[18],"name":"LeftArm_09","rotation":[0.42556875944137573,-0.025464588776230812,0.011981286108493805,0.9044883847236633],"translation":[-5.779673628580895e-9,77.6475601196289,-4.250957204021688e-7]},{"children":[19],"name":"LeftForeArm_010","rotation":[0.16808976233005524,-0.0010184445418417454,-0.0059726121835410595,0.9857531785964966],"translation":[4.64873686212286e-8,138.864990234375,1.0203024203292443e-8]},{"children":[20],"name":"LeftHand_011","rotation":[0.19766834378242493,0.6126929521560669,-0.1619398146867752,0.7478703856468201],"scale":[1,1,0.9999999403953552],"translation":[7.270383406421388e-8,79.4027099609375,5.425346216725302e-8]},{"children":[21],"name":"LeftHandIndex1_012","rotation":[-0.17900727689266205,-0.007024248130619526,0.03857553005218506,0.9830661416053772],"translation":[-7.104461019480368e-9,7.4080705642700195,-1.0017618734536882e-7]},{"children":[22],"name":"LeftHandIndex2_013","rotation":[-2.7755575615628914e-17,3.2959746043559335e-17,-1.3877787807814457e-17,1],"translation":[-1.906542479446216e-8,16.929780960083008,4.7845048811723245e-8]},{"children":[23],"name":"LeftHandIndex3_014","rotation":[-1.3877787807814457e-17,3.209238430557093e-17,6.938893903907228e-18,1],"translation":[-1.2325798273086548,24.595863342285156,-5.186023712158203]},{"name":"LeftHandIndex4_015","rotation":[0,1.734723475976807e-17,0,1],"translation":[-0.7396752238273621,9.695037841796875,-2.069118022918701]},{"children":[25],"name":"RightShoulder_016","rotation":[0.5793970823287964,-0.40611258149147034,0.5772255063056946,0.40765461325645447],"scale":[1,0.9999999403953552,1],"translation":[-36.01399230957031,49.91512680053711,0.13478979468345642]},{"children":[26],"name":"RightArm_017","rotation":[0.42568790912628174,0.03045055828988552,-0.01433510985225439,0.9042439460754395],"translation":[-9.199041528518137e-9,77.6475601196289,-4.247547167324228e-7]},{"children":[27],"name":"RightForeArm_018","rotation":[0.1677807718515396,0.00255058566108346,0.014984617941081524,0.98570716381073],"translation":[1.4923857349913305e-7,138.89158630371094,3.147019356219971e-7]},{"children":[28],"name":"RightHand_019","rotation":[0.22925026714801788,-0.5767821669578552,0.17289839684963226,0.7647697925567627],"scale":[1,1,0.9999999403953552],"translation":[-4.73969343772751e-8,79.39299774169922,-6.5024323703255504e-9]},{"children":[29],"name":"RightHandIndex1_020","rotation":[0.01223843079060316,0.969652533531189,-0.23908264935016632,0.04963565990328789],"translation":[-6.468019364547217e-8,6.3036274909973145,1.5225319316414243e-7]},{"children":[30],"name":"RightHandIndex2_021","rotation":[6.938893903907228e-18,-4.7704895589362195e-18,6.938893903907228e-18,1],"translation":[-3.980181872975663e-8,17.141672134399414,2.3696344442214468e-8]},{"children":[31],"name":"RightHandIndex3_022","rotation":[-1.3877787807814457e-17,-4.7704895589362195e-18,6.938893903907228e-18,1],"translation":[-1.3724697828292847,24.952007293701172,2.1559109687805176]},{"name":"RightHandIndex4_023","rotation":[-6.770847460736376e-35,-3.903127820947816e-18,-1.734723475976807e-17,1],"translation":[-0.43904629349708557,10.355839729309082,0.1811313033103943]},{"children":[33],"name":"LeftUpLeg_024","rotation":[0.005982883740216494,0.03805694356560707,0.9871338605880737,-0.15518642961978912],"translation":[38.58751678466797,-23.321640014648438,0.560187816619873]},{"children":[34],"name":"LeftLeg_025","rotation":[-0.09446204453706741,0.011991155333817005,-0.12535874545574188,0.9875314235687256],"translation":[9.979055448638974e-7,111.52787780761719,4.1422254071221687e-7]},{"children":[35],"name":"LeftFoot_026","rotation":[0.5777527093887329,-0.07137161493301392,0.05081373080611229,0.8114961981773376],"translation":[-2.0158324787189486e-8,80.08296203613281,2.632057771734253e-7]},{"children":[36],"name":"LeftToeBase_027","rotation":[0.4205753803253174,0.03789468854665756,-0.01758541166782379,0.9062952399253845],"translation":[1.9576589238567976e-8,4.181146144866943,-3.4018192707208073e-9]},{"name":"LeftToe_End_028","rotation":[-7.350811070949703e-9,-2.0402599251594664e-25,2.7755575615628914e-17,1],"translation":[5.512745815394737e-9,3.848017692565918,1.6128078428323533e-8]},{"children":[38],"name":"RightUpLeg_00","rotation":[-0.0061142342165112495,0.03889741748571396,0.9871039986610413,0.15516221523284912],"translation":[-38.58751678466797,-23.321640014648438,0.5295290946960449]},{"children":[39],"name":"RightLeg_029","rotation":[-0.09760450571775436,-0.012386856600642204,0.1252880096435547,0.9872298836708069],"translation":[0.0000011571127060960862,111.54131317138672,1.397906714828423e-7]},{"children":[40],"name":"RightFoot_030","rotation":[0.6450162529945374,0.04054579883813858,-0.03430668264627457,0.762320876121521],"translation":[1.3580498148257902e-7,80.1217041015625,-2.842969308858301e-7]},{"children":[41],"name":"RightToeBase_031","rotation":[0.3217318058013916,-0.01278782170265913,0.004345722496509552,0.9467344880104065],"translation":[3.1489378216065234e-8,6.5006890296936035,-3.551591021278e-9]},{"name":"RightToe_End_032","rotation":[-2.801510134986529e-9,-4.8598453993480857e-26,1.734723475976807e-17,1],"translation":[2.940339527413016e-9,4.313530445098877,4.020615307354092e-8]}],"scene":0,"scenes":[{"name":"Sketchfab_Scene","nodes":[0]}],"skins":[{"inverseBindMatrices":8,"joints":[5,9,10,11,12,13,14,15,16,17,18,19,20,21,22,23,24,25,26,27,28,29,30,31,32,33,34,35,36,37,38,39,40,41],"skeleton":5}]}